# xmcd CD database file
#
# Track frame offsets:
#	150
#	11165
#	25585
#	38878
#	54588
#	68377
#	86329
#	97672
#	115640
#	134896
#	153296
#	167429
#	183305
#	197569
#	211865
#	227419
#	244456
#	257713
#
# Disc length: 3651 seconds
#
# Revision: 1
# Processed by: cddbd v1.5.1PL2 Copyright (c) Steve Scherf et al.
# Submitted via: CDex 1.50beta10
#
DISCID=dc0e4112
DTITLE=Costa Brothers - I Fought The Law
DYEAR=1900
DGENRE=Country
TTITLE0=I Fought The Law
TTITLE1=Seven Spanish Angels
TTITLE2=Here Comes My Baby
TTITLE3=Beautiful Body
TTITLE4=Smokey Places
TTITLE5=Amazed
TTITLE6=Runaway
TTITLE7=California Blue
TTITLE8=Another Good Reason
TTITLE9=Margaritaville
TTITLE10=Beautiful Sunday
TTITLE11=Fly Like A Bird
TTITLE12=Give Me A Mountain
TTITLE13=Cunnamulla Fella
TTITLE14=Living Next Door To Alice
TTITLE15=The Losing Side Of Me
TTITLE16=Trere Goes My Everything
TTITLE17=Shout
EXTD=
EXTT0=
EXTT1=
EXTT2=
EXTT3=
EXTT4=
EXTT5=
EXTT6=
EXTT7=
EXTT8=
EXTT9=
EXTT10=
EXTT11=
EXTT12=
EXTT13=
EXTT14=
EXTT15=
EXTT16=
EXTT17=
PLAYORDER=
